<?xml version="1.0" encoding="utf-8"?>
<!-- Generator: Adobe Illustrator 22.0.0, SVG Export Plug-In . SVG Version: 6.00 Build 0)  -->
<svg version="1.1" id="Capa_1" xmlns="http://www.w3.org/2000/svg" xmlns:xlink="http://www.w3.org/1999/xlink" x="0px" y="0px"
	 viewBox="0 0 32 32" style="enable-background:new 0 0 32 32;" xml:space="preserve">
<style type="text/css">
	.st0{fill:#E42B12;}
	.st1{fill:#0E1423;}
</style>
<g>
	<path class="st0" d="M17.3,6c3.7,0,6.3,1.9,7.7,4.8l3.7-4.7C27,4.2,23.6,0.5,17.3,0.5C9.6,0.5,3,6.8,3,15.8c0,0,0,0,0,0h5.6
		C8.6,10.4,11.9,6,17.3,6z"/>
	<path class="st1" d="M17.3,25.6c-5.4,0-8.7-4.3-8.7-9.8c0,0,0-0.1,0-0.1H3C3,24.8,9.6,31,17.3,31c5.7,0,9.9-4.6,10.9-5.7l-3.5-4.1
		C22.7,24.3,19.9,25.6,17.3,25.6z"/>
</g>
</svg>
